<svg id="eNrvFsK7POe1" xmlns="http://www.w3.org/2000/svg" xmlns:xlink="http://www.w3.org/1999/xlink" viewBox="0 0 300 300" shape-rendering="geometricPrecision" text-rendering="geometricPrecision" project-id="d18ace169e6c460e856ce28bc67a89c0" export-id="ebecba7d458245ff9dedaccd2d90317e" cached="false"><defs><linearGradient id="eNrvFsK7POe3-fill" x1="0.617365" y1="0.593223" x2="1.132061" y2="1.099726" spreadMethod="pad" gradientUnits="objectBoundingBox" gradientTransform="translate(0 0)"><stop id="eNrvFsK7POe3-fill-0" offset="0%" stop-color="#bfbebe"/><stop id="eNrvFsK7POe3-fill-1" offset="100%" stop-color="#fff"/></linearGradient><linearGradient id="eNrvFsK7POe4-fill" x1="0.050268" y1="0.045783" x2="1.132061" y2="1.099726" spreadMethod="pad" gradientUnits="objectBoundingBox" gradientTransform="translate(0 0)"><stop id="eNrvFsK7POe4-fill-0" offset="0%" stop-color="#fff"/><stop id="eNrvFsK7POe4-fill-1" offset="100%" stop-color="#e6e6e6"/></linearGradient></defs><rect width="200" height="200" rx="18" ry="18" transform="matrix(.707107 0.707107-.707107 0.707107 150 8.578644)" fill="#9dbcf3" stroke-width="0"/><path d="M64.716851,62.981112c43.616993-29.879851,128.780398-28.083687,170.566298,0c26.83037,35.78602,29.20647,118.776572,0,167.292056-41.915919,33.547024-127.18532,34.070124-170.566298,0-27.151865-37.13217-28.879637-120.609457,0-167.292056Z" transform="matrix(.638958 0 0 0.638958 54.1563 71.938556)" fill="url(#eNrvFsK7POe3-fill)" stroke-width="0.6"/><path d="M64.716851,62.981112c43.616993-29.879851,128.780398-28.083687,170.566298,0c26.83037,35.78602,29.20647,118.776572,0,167.292056-41.915919,33.547024-127.18532,34.070124-170.566298,0-27.151865-37.13217-28.879637-120.609457,0-167.292056Z" transform="matrix(.638958 0 0 0.638958 54.1563 52.938556)" fill="url(#eNrvFsK7POe4-fill)" stroke-width="0.6"/><path d="M87.328558,0C87.328558,46.196426,48.230231,83.646028,0,83.646028s-87.328558-37.449602-87.328558-83.646028s39.098327-83.646028,87.328558-83.646028s87.328558,37.449602,87.328558,83.646028Z" transform="matrix(.623991 0 0 0.638958 150 146.62714)" fill="#1f2d49" stroke-width="0"/><path d="M100.234936,121.426627c25.474038-12.683708,74.613915-9.632364,99.856951,0c16.906981,11.727263,19.585548,36.148418-.608885,49.319591-36.105418,13.156164-75.909251,12.509007-99.856952-.608884s-15.508145-41.204374.608886-48.710707Z" transform="matrix(.638958 0 0 0.638958 54.079287 52.743337)" fill="#3f5787" stroke-width="0.6"/><ellipse rx="4.871071" ry="10.351025" transform="matrix(.638958 0 0 0.638958 132.936987 145.781981)" fill="#19e7ff" stroke-width="0"/><ellipse rx="4.871071" ry="10.351025" transform="matrix(.638958 0 0 0.638958 167.936987 145.781981)" fill="#19e7ff" stroke-width="0"/></svg>
