<?xml version="1.0" standalone="no"?>
<!DOCTYPE svg PUBLIC "-//W3C//DTD SVG 20010904//EN"
 "http://www.w3.org/TR/2001/REC-SVG-20010904/DTD/svg10.dtd">
<svg version="1.0" xmlns="http://www.w3.org/2000/svg"
 width="1024.000000pt" height="1024.000000pt" viewBox="0 0 1024.000000 1024.000000"
 preserveAspectRatio="xMidYMid meet">

<g transform="translate(0.000000,1024.000000) scale(0.100000,-0.100000)"
fill="#000000" stroke="none">
<path d="M3521 8093 c-37 -18 -66 -58 -81 -113 -12 -42 -23 -236 -50 -880 -12
-267 -25 -583 -30 -702 -11 -237 -7 -279 36 -355 44 -76 34 -71 544 -283 552
-229 918 -365 1408 -521 350 -111 392 -120 441 -95 51 27 58 59 71 301 6 121
27 515 46 875 39 724 40 852 7 915 -24 46 -74 96 -118 118 -28 14 -295 108
-955 337 -243 85 -474 164 -1015 351 -110 38 -216 69 -235 69 -19 0 -50 -8
-69 -17z m311 -264 c229 -85 517 -189 948 -342 313 -111 763 -266 867 -298 34
-11 76 -31 92 -45 53 -44 56 -72 37 -386 -9 -156 -25 -461 -36 -678 -11 -217
-22 -453 -26 -525 -7 -155 -18 -195 -58 -214 -37 -17 -66 -9 -456 120 -611
202 -1582 574 -1643 629 -42 37 -47 81 -37 295 5 104 17 357 25 560 32 785 36
867 45 890 9 24 46 55 67 55 7 0 86 -27 175 -61z m8 21 c8 -5 11 -10 5 -10 -5
0 -17 5 -25 10 -8 5 -10 10 -5 10 6 0 17 -5 25 -10z m160 -60 c8 -5 11 -10 5
-10 -5 0 -17 5 -25 10 -8 5 -10 10 -5 10 6 0 17 -5 25 -10z m110 -42 c10 -6 7
-7 -10 -2 -14 3 -32 11 -40 16 -10 6 -7 7 10 2 14 -3 32 -11 40 -16z m-553
-170 c-2 -29 -3 -6 -3 52 0 58 1 81 3 53 2 -29 2 -77 0 -105z m663 130 c10 -6
7 -7 -10 -2 -14 3 -32 11 -40 16 -10 6 -7 7 10 2 14 -3 32 -11 40 -16z m55
-18 c13 -6 15 -9 5 -9 -8 0 -22 4 -30 9 -18 12 -2 12 25 0z m85 -32 c10 -6 7
-7 -10 -2 -14 3 -32 11 -40 16 -10 6 -7 7 10 2 14 -3 32 -11 40 -16z m140 -50
c10 -6 7 -7 -10 -2 -14 3 -32 11 -40 16 -10 6 -7 7 10 2 14 -3 32 -11 40 -16z
m140 -50 c10 -6 7 -7 -10 -2 -14 3 -32 11 -40 16 -10 6 -7 7 10 2 14 -3 32
-11 40 -16z m125 -44 c24 -11 25 -13 5 -8 -14 4 -38 13 -55 20 -24 11 -25 13
-5 8 14 -4 39 -13 55 -20z m-1218 -161 c-2 -32 -3 -8 -3 52 0 61 1 87 3 58 2
-29 2 -78 0 -110z m1361 112 c29 -9 52 -19 49 -21 -5 -5 -127 36 -127 43 0 3
6 3 13 1 6 -3 36 -13 65 -23z m230 -80 c46 -15 82 -29 79 -31 -5 -5 -178 53
-186 62 -3 4 1 5 9 2 8 -3 52 -17 98 -33z m182 -65 c8 -5 11 -10 5 -10 -5 0
-17 5 -25 10 -8 5 -10 10 -5 10 6 0 17 -5 25 -10z m-1783 -202 c-2 -29 -3 -6
-3 52 0 58 1 81 3 53 2 -29 2 -77 0 -105z m-10 -215 c-2 -21 -4 -4 -4 37 0 41
2 58 4 38 2 -21 2 -55 0 -75z m2280 -15 c-2 -18 -4 -4 -4 32 0 36 2 50 4 33 2
-18 2 -48 0 -65z m-2290 -220 c-2 -35 -3 -9 -3 57 0 66 1 94 3 63 2 -32 2 -86
0 -120z m2280 60 c-2 -18 -4 -6 -4 27 0 33 2 48 4 33 2 -15 2 -42 0 -60z m-10
-165 c-2 -21 -4 -6 -4 32 0 39 2 55 4 38 2 -18 2 -50 0 -70z m-2280 -115 c-2
-29 -3 -8 -3 47 0 55 1 79 3 53 2 -26 2 -71 0 -100z m2270 -85 c-2 -21 -4 -6
-4 32 0 39 2 55 4 38 2 -18 2 -50 0 -70z m-10 -185 c-2 -24 -4 -7 -4 37 0 44
2 63 4 43 2 -21 2 -57 0 -80z m-10 -210 c-2 -18 -4 -4 -4 32 0 36 2 50 4 33 2
-18 2 -48 0 -65z m-2097 52 c8 -5 11 -10 5 -10 -5 0 -17 5 -25 10 -8 5 -10 10
-5 10 6 0 17 -5 25 -10z m70 -30 c8 -5 11 -10 5 -10 -5 0 -17 5 -25 10 -8 5
-10 10 -5 10 6 0 17 -5 25 -10z m50 -20 c8 -5 11 -10 5 -10 -5 0 -17 5 -25 10
-8 5 -10 10 -5 10 6 0 17 -5 25 -10z m50 -20 c8 -5 11 -10 5 -10 -5 0 -17 5
-25 10 -8 5 -10 10 -5 10 6 0 17 -5 25 -10z m80 -32 c10 -6 7 -7 -10 -2 -14 3
-32 11 -40 16 -10 6 -7 7 10 2 14 -3 32 -11 40 -16z m50 -18 c8 -5 11 -10 5
-10 -5 0 -17 5 -25 10 -8 5 -10 10 -5 10 6 0 17 -5 25 -10z m190 -75 c74 -30
130 -54 123 -55 -12 0 -285 108 -293 117 -8 9 28 -4 170 -62z m1597 18 c-3
-10 -5 -2 -5 17 0 19 2 27 5 18 2 -10 2 -26 0 -35z m0 -75 c-2 -13 -4 -5 -4
17 -1 22 1 32 4 23 2 -10 2 -28 0 -40z m-1402 -19 c22 -10 29 -16 15 -13 -28
7 -80 33 -65 33 6 0 28 -9 50 -20z m135 -51 c10 -6 7 -7 -10 -2 -14 3 -32 11
-40 16 -10 6 -7 7 10 2 14 -3 32 -11 40 -16z m80 -28 c8 -5 11 -10 5 -10 -5 0
-17 5 -25 10 -8 5 -10 10 -5 10 6 0 17 -5 25 -10z m1177 -102 c-2 -18 -4 -4
-4 32 0 36 2 50 4 33 2 -18 2 -48 0 -65z m-1097 72 c8 -5 11 -10 5 -10 -5 0
-17 5 -25 10 -8 5 -10 10 -5 10 6 0 17 -5 25 -10z m140 -52 c10 -6 7 -7 -10
-2 -14 3 -32 11 -40 16 -10 6 -7 7 10 2 14 -3 32 -11 40 -16z m95 -34 c24 -11
25 -13 5 -8 -14 4 -38 13 -55 20 -24 11 -25 13 -5 8 14 -4 39 -13 55 -20z
m852 -126 c-3 -7 -5 -2 -5 12 0 14 2 19 5 13 2 -7 2 -19 0 -25z m-500 6 c-3
-3 -12 -4 -19 -1 -8 3 -5 6 6 6 11 1 17 -2 13 -5z m78 -24 c13 -6 15 -9 5 -9
-8 0 -22 4 -30 9 -18 12 -2 12 25 0z m161 -51 c32 -11 86 -27 119 -34 39 -9
50 -14 30 -14 -28 0 -242 66 -219 68 6 1 37 -8 70 -20z"/>
<path d="M3765 7599 c-4 -5 -4 -20 -1 -33 5 -19 44 -36 273 -120 662 -241
1545 -541 1568 -532 18 7 20 50 3 63 -7 6 -92 36 -188 68 -370 122 -949 322
-1277 441 -188 68 -349 124 -357 124 -8 0 -18 -5 -21 -11z m156 -45 c374 -139
1173 -417 1558 -542 111 -37 147 -60 125 -82 -14 -14 -815 255 -1513 509 -168
61 -306 111 -307 111 -6 0 -13 33 -8 41 8 13 10 13 145 -37z"/>
<path d="M5121 6881 c-10 -7 -17 -43 -22 -123 -8 -105 -49 -878 -49 -910 0 -9
62 -35 190 -78 104 -35 192 -62 194 -59 2 2 9 112 15 244 7 132 19 365 27 518
10 185 11 283 5 296 -12 22 -28 29 -194 81 -137 43 -145 44 -166 31z m184 -51
c177 -56 165 -46 165 -143 0 -45 -4 -145 -9 -222 -5 -77 -15 -259 -23 -405 -7
-146 -14 -249 -16 -230 -2 19 1 123 6 230 6 131 6 198 -1 205 -7 7 -8 4 -4 -7
4 -12 1 -18 -9 -18 -8 0 -12 4 -9 10 3 5 2 17 -3 26 -6 11 -11 13 -16 5 -4 -6
-2 -11 3 -11 6 0 10 -9 8 -20 -4 -26 -17 -38 -17 -15 0 28 -13 9 -15 -22 -1
-16 -3 -36 -3 -45 -2 -14 -11 -18 -37 -18 -19 0 -35 -4 -35 -10 0 -19 -2 -25
-12 -37 -8 -10 -6 -13 7 -13 13 0 16 6 12 21 -5 19 -4 20 12 5 10 -9 21 -13
26 -9 4 5 5 2 1 -5 -4 -7 -12 -10 -17 -7 -5 4 -9 -1 -9 -9 0 -12 -5 -14 -25
-6 -14 5 -25 7 -25 5 0 -12 6 -20 13 -17 5 1 6 -2 3 -7 -8 -12 -39 -7 -44 7
-2 7 0 12 5 12 5 0 9 10 10 23 0 12 -1 16 -4 9 -4 -10 -11 -9 -31 4 -26 17
-26 17 -12 0 8 -10 15 -24 16 -31 3 -21 -19 -8 -40 23 -21 32 -42 37 -42 11 0
-10 3 -16 6 -15 3 2 12 1 20 -3 14 -5 13 -9 -4 -25 -18 -18 -19 -18 -13 -2 5
13 3 17 -7 13 -9 -4 -17 1 -19 11 -3 12 -5 10 -6 -6 0 -13 -5 -21 -9 -18 -5 3
-9 -1 -9 -9 0 -11 5 -12 21 -3 20 11 20 10 6 -8 -8 -10 -21 -23 -27 -27 -8 -5
-13 -33 -14 -75 -1 -37 -4 -58 -6 -47 -5 18 1 166 27 665 6 107 13 219 16 248
5 49 7 52 34 52 16 0 86 -18 155 -40z m77 -687 c-27 -13 -30 -18 -20 -31 8
-10 3 -9 -14 3 l-26 20 24 3 c13 2 24 8 24 13 0 5 10 9 23 9 19 0 17 -3 -11
-17z m-24 -60 c-10 -2 -18 -9 -18 -15 0 -6 -3 -9 -6 -5 -10 10 6 27 24 26 15
-1 15 -2 0 -6z m-138 -43 c0 -5 -5 -10 -11 -10 -5 0 -7 5 -4 10 3 6 8 10 11
10 2 0 4 -4 4 -10z m50 -15 c-7 -8 -20 -15 -28 -15 -13 0 -12 3 4 15 25 19 40
19 24 0z m-55 -15 c3 -5 1 -10 -4 -10 -6 0 -11 5 -11 10 0 6 2 10 4 10 3 0 8
-4 11 -10z"/>
<path d="M5111 6494 c0 -11 3 -14 6 -6 3 7 2 16 -1 19 -3 4 -6 -2 -5 -13z"/>
<path d="M5417 6315 c3 -8 9 -12 14 -9 12 7 11 11 -5 17 -10 4 -13 1 -9 -8z"/>
<path d="M5315 6209 c-4 -6 -5 -12 -2 -15 2 -3 7 2 10 11 7 17 1 20 -8 4z"/>
<path d="M5092 6180 c0 -14 2 -19 5 -12 2 6 2 18 0 25 -3 6 -5 1 -5 -13z"/>
<path d="M5335 6190 c4 -6 11 -8 16 -5 14 9 11 15 -7 15 -8 0 -12 -5 -9 -10z"/>
<path d="M5092 6115 c0 -16 2 -22 5 -12 2 9 2 23 0 30 -3 6 -5 -1 -5 -18z"/>
<path d="M4546 6784 c-9 -8 -16 -30 -16 -47 0 -18 -7 -167 -15 -332 -8 -165
-15 -316 -15 -335 l0 -36 158 -56 c242 -87 221 -82 226 -45 3 18 12 182 20
364 16 344 13 384 -22 398 -32 13 -306 105 -313 105 -4 0 -15 -7 -23 -16z
m180 -48 c188 -63 174 -50 174 -156 0 -90 -29 -652 -34 -657 -1 -2 -27 6 -57
17 -30 11 -44 18 -32 16 12 -2 21 1 20 6 -1 6 7 11 19 12 11 2 21 -3 21 -10 0
-7 -7 -10 -15 -6 -9 3 -13 1 -9 -5 4 -6 16 -13 27 -16 17 -4 20 0 20 28 l0 33
-54 -2 c-32 0 -52 -5 -49 -11 2 -5 -2 -2 -10 7 -12 15 -16 16 -33 3 -10 -8
-23 -14 -29 -15 -5 0 -4 4 3 9 9 5 -5 15 -43 29 -74 29 -82 27 -20 -4 58 -28
47 -27 -47 7 l-67 23 4 71 c5 89 13 270 20 455 8 195 10 210 38 210 13 0 81
-20 153 -44z m69 -756 c-3 -5 -12 -10 -18 -10 -7 0 -6 4 3 10 19 12 23 12 15
0z m-55 -10 c8 -5 11 -10 5 -10 -5 0 -17 5 -25 10 -8 5 -10 10 -5 10 6 0 17
-5 25 -10z"/>
<path d="M8725 6260 c0 -938 1 -1321 2 -852 2 468 2 1236 0 1705 -1 468 -2 85
-2 -853z"/>
<path d="M6534 7557 c-1 -95 -9 -323 -18 -507 -18 -373 -48 -1023 -71 -1525
-8 -181 -19 -433 -25 -560 -55 -1205 -60 -1343 -49 -1374 14 -40 33 -40 110 3
50 28 67 33 86 25 16 -6 22 -5 18 1 -11 17 11 11 28 -8 15 -16 17 -50 16 -283
0 -145 -4 -339 -8 -431 -8 -159 -9 -169 -34 -202 -15 -18 -55 -50 -91 -70 -56
-31 -73 -36 -131 -36 -58 0 -83 7 -188 52 -183 77 -193 81 -182 70 6 -6 69
-35 141 -66 232 -98 260 -97 429 11 100 64 230 145 655 408 512 316 1283 799
1350 846 63 44 89 66 110 94 8 11 -8 0 -36 -25 -29 -25 -130 -94 -225 -154
-96 -60 -214 -135 -264 -167 -116 -74 -516 -323 -810 -504 -433 -268 -520
-322 -605 -377 -47 -30 -95 -60 -108 -67 l-23 -12 18 27 c17 26 18 62 21 450
3 383 2 425 -13 448 -23 34 -69 34 -135 1 -74 -38 -99 -32 -113 24 -9 35 45
1339 108 2661 57 1183 63 1362 47 1402 -4 9 -8 -61 -8 -155z"/>
<path d="M4400 4621 c0 -27 5 -31 73 -56 39 -15 180 -69 312 -120 132 -51 301
-116 375 -145 192 -74 200 -77 200 -97 -1 -17 -1 -17 -11 0 -5 9 -15 17 -20
17 -6 0 -7 -4 -4 -10 3 -5 -1 -10 -9 -10 -11 0 -16 -9 -15 -27 0 -16 3 -22 6
-15 9 22 41 13 224 -60 98 -39 182 -68 186 -64 4 3 7 52 7 108 l1 101 -140 54
c-240 91 -235 90 -244 74 -5 -8 -7 -25 -5 -38 3 -18 0 -23 -16 -23 -21 0 -177
58 -631 236 -146 57 -271 104 -277 104 -7 0 -12 -13 -12 -29z"/>
<path d="M8270 4344 c-264 -156 -506 -300 -1245 -739 -38 -23 -71 -49 -73 -58
-4 -20 -9 -22 323 178 116 70 242 145 280 167 39 22 97 57 130 78 33 20 114
69 180 107 66 39 235 138 375 220 140 83 279 163 308 178 28 16 52 34 52 42 0
7 -3 13 -7 13 -5 -1 -150 -84 -323 -186z"/>
<path d="M8730 4395 l0 -65 115 -55 c159 -78 257 -144 349 -238 44 -44 70 -66
58 -49 -52 72 -236 222 -345 280 -59 31 -167 138 -167 164 0 6 11 7 25 4 35
-9 31 0 -5 13 l-30 10 0 -64z"/>
<path d="M2855 4430 c10 -11 20 -20 23 -20 3 0 -3 9 -13 20 -10 11 -20 20 -23
20 -3 0 3 -9 13 -20z"/>
<path d="M2904 4396 c11 -9 24 -16 30 -16 12 0 7 5 -24 19 -24 11 -24 11 -6
-3z"/>
<path d="M8325 4233 c-143 -85 -469 -280 -725 -433 -256 -153 -505 -301 -553
-330 -51 -29 -92 -61 -96 -73 -11 -29 -5 -34 16 -15 15 13 747 456 968 586 33
19 175 104 315 187 140 84 273 162 295 173 41 21 77 63 53 61 -7 0 -130 -71
-273 -156z"/>
<path d="M2980 4360 c8 -5 20 -10 25 -10 6 0 3 5 -5 10 -8 5 -19 10 -25 10 -5
0 -3 -5 5 -10z"/>
<path d="M3030 4340 c8 -5 20 -10 25 -10 6 0 3 5 -5 10 -8 5 -19 10 -25 10 -5
0 -3 -5 5 -10z"/>
<path d="M3080 4320 c8 -5 20 -10 25 -10 6 0 3 5 -5 10 -8 5 -19 10 -25 10 -5
0 -3 -5 5 -10z"/>
<path d="M8723 4255 c0 -38 2 -53 4 -32 2 20 2 52 0 70 -2 17 -4 1 -4 -38z"/>
<path d="M8160 3991 c-234 -141 -596 -359 -805 -485 -347 -209 -424 -260 -411
-273 7 -7 75 32 396 227 549 334 996 604 1125 679 76 44 131 83 133 94 2 9 0
16 -5 16 -4 -1 -199 -117 -433 -258z"/>
<path d="M3280 4225 c14 -8 30 -14 35 -14 6 0 -1 6 -15 14 -14 8 -29 14 -35
14 -5 0 1 -6 15 -14z"/>
<path d="M3380 4182 c30 -15 105 -47 165 -71 61 -24 180 -73 265 -109 85 -36
214 -88 285 -117 288 -116 340 -138 350 -146 5 -5 16 -9 25 -9 9 0 54 -16 101
-36 46 -19 118 -50 159 -67 41 -18 78 -36 82 -42 4 -5 8 -7 8 -3 0 9 91 -24
185 -67 100 -44 119 -52 142 -59 11 -4 24 -14 27 -22 4 -10 13 -13 25 -9 10 3
46 -7 82 -23 35 -16 67 -28 71 -28 4 1 14 -8 22 -19 8 -11 18 -17 22 -13 4 4
13 3 21 -3 7 -6 13 -9 13 -6 0 5 92 -29 157 -59 17 -8 36 -14 43 -14 6 0 8 -4
5 -10 -3 -6 1 -7 9 -4 9 3 16 1 16 -6 0 -6 4 -8 10 -5 9 6 68 -21 80 -37 3 -3
19 -8 35 -10 29 -3 30 -5 27 -48 -4 -78 1 -85 82 -119 41 -17 81 -31 89 -31
19 0 27 21 28 78 1 26 4 37 6 26 4 -19 8 -21 41 -13 20 5 55 9 76 9 41 0 38
-2 144 114 30 34 26 31 -73 -38 -46 -32 -65 -39 -120 -43 -63 -6 -68 -4 -302
92 -131 53 -279 114 -329 136 -51 21 -222 90 -380 154 -159 64 -363 147 -454
185 -91 37 -250 102 -355 143 -104 42 -349 141 -544 221 -364 150 -437 177
-341 128z"/>
<path d="M8721 4144 c0 -11 3 -14 6 -6 3 7 2 16 -1 19 -3 4 -6 -2 -5 -13z"/>
<path d="M8696 4043 c-6 -14 -5 -15 5 -6 7 7 10 15 7 18 -3 3 -9 -2 -12 -12z"/>
<path d="M2396 3987 c9 -15 14 -30 10 -34 -3 -3 -6 -2 -6 4 0 6 -9 13 -20 16
-10 3 -18 1 -17 -3 1 -5 -17 -29 -41 -54 -24 -25 -41 -50 -37 -56 3 -5 1 -10
-5 -10 -6 0 -9 -4 -5 -9 3 -5 -5 -21 -19 -34 l-24 -24 -78 32 c-132 53 -146
62 -133 86 16 31 4 33 -16 3 -9 -14 -13 -30 -8 -34 4 -4 65 -31 136 -60 152
-63 189 -97 126 -119 -17 -6 -28 -15 -25 -20 4 -5 3 -11 -2 -13 -17 -7 -60
-75 -67 -105 -3 -18 -11 -35 -16 -38 -9 -6 -344 129 -367 147 -7 6 -15 8 -18
5 -8 -8 69 -45 241 -116 141 -58 185 -86 185 -116 0 -7 -7 -16 -16 -19 -10 -4
-13 -2 -7 7 4 6 -7 1 -24 -13 -17 -14 -30 -27 -29 -30 0 -3 -9 -16 -21 -29
-12 -13 -20 -28 -17 -33 3 -4 1 -8 -4 -8 -9 0 -27 -74 -23 -93 0 -4 -16 0 -36
9 -21 9 -51 21 -68 26 -16 6 -50 24 -75 41 -25 17 -106 58 -180 92 -122 56
-135 64 -133 86 3 23 2 23 -12 5 -8 -11 -15 -23 -15 -27 0 -4 68 -37 151 -75
116 -52 153 -73 160 -92 12 -30 12 -52 0 -33 -7 11 -18 7 -55 -18 -26 -18 -44
-36 -41 -41 12 -19 -8 -60 -30 -66 -18 -4 -24 -15 -30 -50 -3 -24 -3 -48 0
-54 3 -5 3 -10 -1 -10 -4 0 -94 39 -200 87 l-192 87 2 42 c2 38 0 42 -15 34
-24 -13 -29 -33 -16 -60 12 -24 163 -96 757 -362 124 -55 367 -165 540 -243
173 -79 511 -231 750 -338 239 -107 480 -216 535 -242 55 -26 206 -94 335
-152 129 -58 273 -123 320 -144 102 -46 161 -51 206 -17 16 12 62 53 102 90
63 60 77 68 111 68 26 0 50 9 77 28 43 32 498 492 608 616 55 61 67 79 55 87
-8 5 -18 9 -24 9 -5 0 -3 -4 5 -10 24 -15 6 -20 -28 -8 -18 7 -32 19 -32 29 0
9 -8 25 -17 36 -10 10 -14 13 -10 7 5 -7 10 -36 13 -64 l5 -51 -68 -65 c-63
-61 -71 -65 -103 -60 -19 3 -36 10 -38 16 -2 5 -8 10 -14 10 -5 0 -22 9 -37
19 -45 32 -201 92 -221 86 -15 -5 -21 0 -25 22 -4 15 -11 38 -16 51 -19 48
-11 76 36 122 52 51 56 77 18 111 l-27 24 16 -26 c15 -24 15 -25 -14 -38 -16
-7 -33 -24 -38 -36 -5 -13 -13 -26 -19 -29 -7 -5 -7 -13 2 -27 10 -16 9 -21
-3 -29 -38 -23 -60 -44 -60 -55 0 -9 -23 -4 -72 16 -40 15 -87 28 -105 29 -41
0 -52 20 -55 99 -2 61 -2 61 46 110 l48 49 -29 29 c-15 16 -23 23 -17 16 8
-10 -1 -25 -33 -59 -24 -25 -41 -49 -38 -53 3 -5 -2 -11 -10 -15 -8 -3 -15
-11 -15 -19 0 -7 -11 -24 -25 -37 -13 -12 -22 -27 -19 -31 7 -12 7 -12 -61 16
-33 13 -76 25 -96 25 -41 0 -53 18 -65 102 -6 46 -5 48 46 102 l52 55 -23 30
c-25 34 -34 40 -25 14 7 -18 -39 -73 -61 -73 -7 0 -13 -3 -14 -7 0 -5 -2 -15
-5 -23 -2 -8 -7 -28 -10 -44 -8 -32 -37 -66 -57 -66 -8 0 -42 11 -76 25 -35
15 -68 24 -74 22 -5 -1 12 -11 39 -21 74 -28 144 -68 155 -89 9 -15 3 -25 -33
-57 -24 -22 -43 -43 -44 -47 0 -4 -11 -33 -24 -63 -14 -30 -24 -58 -23 -61 1
-4 -32 6 -73 22 -41 16 -88 29 -104 29 -23 0 -30 6 -39 31 -6 18 -11 50 -11
72 0 37 7 47 68 109 38 37 63 68 56 68 -13 0 -34 72 -34 118 0 22 13 41 56 82
50 47 55 55 44 74 -6 12 -21 28 -33 35 l-22 14 21 -24 c33 -38 36 -47 16 -58
-14 -7 -19 -6 -19 4 0 8 4 12 9 9 4 -3 8 0 8 5 0 6 -6 11 -14 11 -25 0 -46
-12 -46 -26 0 -8 -4 -14 -10 -14 -16 0 -33 -40 -21 -53 6 -8 6 -18 1 -27 -8
-12 -10 -10 -10 8 0 29 -16 28 -24 -1 -3 -13 -15 -35 -26 -50 l-20 -25 -60 24
c-33 13 -75 24 -94 24 -29 0 -36 4 -45 31 -6 18 -11 52 -11 77 0 42 4 50 50
94 53 51 55 65 14 99 -16 13 -16 12 -5 -10 8 -14 9 -21 2 -17 -14 9 -103 -52
-96 -64 3 -5 -4 -30 -15 -55 -19 -41 -29 -50 -53 -46 -5 1 -5 -4 -1 -10 5 -9
2 -10 -12 -5 -70 29 -130 45 -145 41 -21 -7 -39 39 -39 103 0 42 4 50 51 93
54 50 56 64 13 100 -16 13 -16 12 -6 -6 9 -18 7 -21 -9 -22 -10 -1 -32 -11
-48 -22 -21 -16 -30 -31 -35 -67 -3 -25 -15 -58 -26 -73 -11 -16 -16 -31 -13
-35 4 -4 -24 5 -63 20 -38 15 -85 30 -104 33 -29 5 -37 13 -47 41 -26 78 -18
101 65 173 l33 28 -22 30 c-12 17 -24 28 -27 24 -3 -3 -1 -10 6 -17 13 -13
-24 -46 -59 -53 -28 -6 -38 -16 -21 -22 10 -4 7 -9 -8 -20 -12 -8 -19 -21 -16
-29 3 -8 -9 -29 -26 -48 l-31 -34 -64 24 c-35 13 -74 24 -87 24 -28 0 -46 40
-46 104 0 36 6 46 55 91 l55 51 -31 35 c-26 28 -28 30 -15 7 16 -27 16 -28 -3
-28 -22 0 -81 -69 -100 -117 -7 -17 -21 -39 -31 -48 -16 -15 -22 -14 -81 9
-34 15 -75 26 -90 26 -22 0 -30 6 -39 34 -6 19 -12 53 -13 76 -1 39 2 45 50
86 l52 45 -21 34 c-23 41 -29 43 -25 13 1 -14 -3 -22 -10 -21 -6 2 -21 -9 -31
-22 -11 -14 -23 -25 -27 -25 -3 0 -13 -7 -21 -15 -18 -18 -4 -20 16 -2 11 9
11 8 0 -8 -8 -11 -17 -22 -20 -25 -3 -3 -16 -26 -30 -52 l-24 -46 -55 25 c-31
14 -73 25 -93 25 -35 1 -39 4 -48 37 -5 20 -10 54 -10 75 0 35 6 45 56 91 l56
51 -27 30 -26 29 17 -28z m123 -347 c21 -10 41 -26 45 -35 8 -23 8 -47 -2 -41
-9 5 -84 -49 -76 -57 9 -8 -14 -80 -34 -105 l-17 -22 -63 25 c-34 14 -75 25
-91 25 -22 0 -31 6 -39 28 -21 51 -25 100 -10 120 18 27 108 102 133 112 20 8
78 -11 154 -50z m266 -110 c35 -17 69 -39 74 -48 15 -29 -6 -61 -53 -81 -53
-23 -59 -32 -46 -65 5 -14 6 -26 1 -26 -5 0 -14 -14 -21 -31 -7 -16 -18 -28
-24 -25 -84 38 -140 56 -156 51 -16 -5 -21 1 -30 34 -14 55 -16 109 -2 123 6
6 37 32 69 59 68 57 85 58 188 9z m275 -126 c89 -42 83 -38 86 -72 1 -21 -3
-28 -18 -29 -10 -1 -34 -16 -51 -34 -18 -18 -26 -29 -19 -25 7 4 12 1 12 -8 0
-9 -4 -16 -10 -16 -5 0 -7 -7 -4 -15 4 -8 1 -15 -5 -15 -6 0 -11 -11 -11 -24
0 -36 -26 -39 -87 -11 -31 14 -60 25 -67 24 -6 0 26 -17 71 -38 44 -22 86 -48
92 -59 11 -21 5 -56 -9 -47 -4 2 -22 -9 -40 -25 -19 -17 -28 -30 -22 -30 7 0
5 -8 -6 -20 -9 -12 -17 -24 -18 -28 -15 -96 -28 -101 -152 -49 l-102 42 0 62
0 61 58 49 c31 27 68 57 82 66 17 12 20 17 8 17 -19 0 -24 12 -33 73 -4 27 -3
53 4 66 13 23 138 121 155 121 6 0 45 -16 86 -36z m-707 -6 c62 -25 117 -64
116 -81 0 -7 -23 -30 -51 -52 -28 -22 -53 -46 -56 -54 -3 -8 0 -11 7 -7 6 4
11 2 11 -4 0 -6 -6 -13 -14 -16 -8 -3 -16 -18 -19 -33 -3 -15 -17 -33 -31 -40
-23 -13 -33 -11 -112 26 -82 37 -87 41 -91 74 -8 71 4 95 75 154 37 30 77 55
90 55 13 0 47 -10 75 -22z m427 -33 c-7 -9 -15 -13 -19 -10 -3 3 1 10 9 15 21
14 24 12 10 -5z m587 -85 c46 -21 75 -41 86 -60 21 -35 21 -39 0 -34 -20 5
-87 -45 -104 -78 -8 -15 -8 -19 0 -14 7 5 11 -4 11 -23 0 -17 -4 -31 -8 -31
-5 0 -14 -11 -21 -24 l-13 -23 -75 29 c-44 17 -85 27 -98 24 -19 -5 -24 0 -33
33 -7 21 -12 56 -12 78 0 41 23 70 110 137 41 32 58 30 157 -14z m-701 -19
c33 -16 70 -41 83 -56 l21 -28 -37 -22 c-21 -12 -37 -27 -35 -33 1 -7 -4 -12
-12 -12 -8 0 -18 -5 -22 -12 -5 -7 -3 -8 5 -3 8 4 6 -3 -3 -18 -9 -13 -16 -29
-15 -33 2 -17 -13 -54 -23 -54 -6 0 -8 -7 -4 -15 5 -13 1 -13 -32 1 -20 8 -67
27 -104 42 -57 22 -67 30 -72 55 -16 77 -10 92 62 156 79 71 98 75 188 32z
m-589 -82 c190 -84 210 -95 216 -119 4 -17 2 -20 -10 -16 -9 4 -42 -13 -82
-44 -52 -38 -67 -55 -66 -72 1 -13 0 -27 -3 -32 -3 -6 -5 -27 -5 -48 1 -43 2
-43 -40 -24 -18 8 -97 44 -177 79 -142 63 -145 65 -148 98 -6 62 8 120 36 147
41 38 116 91 129 92 6 0 74 -28 150 -61z m1587 -23 c67 -30 106 -64 106 -91 0
-5 -4 -4 -9 3 -6 10 -16 4 -37 -27 -16 -22 -33 -39 -39 -37 -6 2 -9 -13 -9
-35 1 -22 -2 -39 -7 -39 -5 0 -9 -7 -9 -16 0 -8 -4 -12 -10 -9 -5 3 -10 -3
-10 -14 0 -11 -4 -22 -8 -25 -5 -3 -48 9 -96 25 -48 17 -94 28 -101 25 -28
-10 -48 112 -25 154 18 33 131 120 157 120 13 0 57 -15 97 -34z m824 -91 c-3
-3 -9 2 -12 12 -6 14 -5 15 5 6 7 -7 10 -15 7 -18z m-514 -44 c64 -31 99 -67
78 -80 -5 -3 -11 -14 -13 -25 -2 -10 -15 -26 -29 -34 l-25 -16 23 23 c30 30
28 40 -3 11 -20 -19 -23 -26 -13 -39 7 -9 8 -13 3 -8 -5 4 -15 -11 -23 -34 -7
-23 -22 -51 -33 -62 l-19 -21 -65 27 c-36 15 -79 27 -95 27 -36 0 -49 21 -57
91 l-6 51 69 65 c64 60 72 65 105 60 20 -3 66 -19 103 -36z m-1475 -20 c120
-51 372 -162 451 -199 25 -11 115 -51 200 -88 85 -37 238 -104 340 -149 102
-45 220 -96 263 -115 82 -35 133 -82 101 -94 -10 -4 -13 -2 -8 7 4 6 5 10 1 7
-3 -3 -24 -21 -46 -39 -23 -19 -41 -43 -41 -53 0 -10 -5 -18 -11 -18 -5 0 -7
-4 -4 -10 3 -5 1 -10 -5 -10 -6 0 -9 -4 -5 -9 3 -5 1 -12 -5 -16 -5 -3 -10
-21 -10 -38 0 -18 -4 -39 -10 -47 -6 -9 -5 -19 3 -28 13 -16 38 -27 -328 138
-148 67 -353 159 -455 205 -102 45 -239 107 -305 137 -66 30 -189 85 -272 123
l-153 68 0 48 c0 56 13 95 43 128 31 34 117 101 129 101 6 0 62 -22 127 -49z
m766 -1 c63 -28 105 -63 105 -87 0 -7 -3 -12 -7 -12 -21 3 -33 -2 -27 -12 4
-7 1 -10 -7 -7 -22 7 -66 -39 -67 -71 -1 -36 -28 -91 -45 -91 -8 0 -7 -4 3
-11 21 -15 9 -10 -118 41 l-112 45 0 57 c0 53 3 60 38 94 20 20 55 50 76 66
46 33 63 32 161 -12z m301 -135 c39 -18 78 -43 87 -55 16 -23 15 -24 -16 -46
-18 -12 -35 -20 -38 -18 -3 2 -17 -8 -30 -23 -13 -14 -18 -23 -10 -18 11 6 13
4 6 -11 -4 -10 -10 -34 -13 -52 -2 -18 -13 -38 -23 -46 -10 -7 -16 -16 -12
-20 8 -8 -1 -5 -127 48 -84 35 -85 36 -93 77 -12 58 3 87 79 153 75 64 74 64
190 11z m1024 -103 c99 -49 101 -63 21 -133 -54 -48 -75 -74 -53 -66 13 4 14
-14 2 -43 -17 -40 -39 -44 -101 -19 -30 12 -68 21 -86 21 -36 -1 -41 7 -50 87
l-5 56 71 68 c85 80 96 82 201 29z m-715 -24 c97 -47 99 -54 34 -119 -41 -41
-55 -61 -55 -84 -1 -42 -14 -83 -27 -88 -7 -2 -58 14 -114 36 l-101 40 -7 48
c-4 26 -4 57 0 69 3 11 38 48 77 81 81 70 83 70 193 17z m445 18 c0 -2 -8 -10
-17 -17 -16 -13 -17 -12 -4 4 13 16 21 21 21 13z m-725 -35 c-3 -6 -11 -11
-17 -11 -6 0 -6 6 2 15 14 17 26 13 15 -4z m1075 -66 c-7 -8 -17 -15 -22 -15
-6 0 -5 7 2 15 7 8 17 15 22 15 6 0 5 -7 -2 -15z m203 -11 c91 -38 116 -59
115 -94 -1 -21 -12 -40 -40 -66 -21 -19 -48 -58 -60 -85 -12 -27 -26 -49 -30
-49 -5 0 -6 -4 -3 -10 6 -10 5 -10 -94 30 -30 11 -65 19 -77 16 -31 -8 -41 10
-49 81 l-8 62 68 71 c78 80 86 82 178 44z m-680 -41 c44 -23 73 -46 83 -65 13
-25 13 -28 -1 -28 -8 0 -15 -4 -15 -9 0 -5 -7 -12 -16 -15 -10 -4 -13 -2 -8 7
4 6 -7 -1 -25 -18 -17 -16 -29 -35 -26 -43 2 -7 0 -10 -5 -7 -7 4 -9 -7 -6
-31 4 -29 0 -41 -17 -55 -29 -25 -49 -24 -124 6 -35 14 -68 23 -73 20 -16 -10
-40 59 -40 114 0 48 1 51 68 111 62 56 70 60 102 55 19 -4 66 -23 103 -42z
m1000 -98 c76 -33 127 -68 127 -87 0 -4 9 -17 20 -28 20 -20 29 -67 10 -55
-11 7 -70 -50 -70 -68 0 -7 -20 -31 -45 -55 -44 -42 -46 -43 -80 -32 -19 6
-35 15 -35 19 0 5 -38 26 -85 47 l-85 39 0 60 0 59 69 68 c39 37 75 68 81 68
7 0 48 -16 93 -35z m-710 -29 c75 -35 99 -58 89 -85 -6 -17 -63 -71 -74 -71
-5 0 -8 -7 -8 -15 0 -8 -5 -15 -11 -15 -5 0 -7 -5 -3 -11 7 -13 -14 -58 -36
-76 -21 -17 -81 -7 -152 26 l-58 26 0 66 0 67 65 61 c42 39 74 61 89 61 13 0
58 -16 99 -34z m412 -179 c164 -76 180 -85 180 -108 0 -19 5 -25 24 -27 30 -3
41 -17 41 -57 0 -22 -3 -26 -9 -16 -8 12 -13 11 -30 -10 -11 -13 -20 -27 -21
-31 0 -5 -7 -8 -15 -8 -8 0 -15 -7 -15 -15 0 -8 -10 -19 -21 -26 -28 -14 -68
-60 -69 -77 0 -7 -8 -16 -17 -19 -15 -6 -15 -7 3 -14 15 -6 12 -8 -14 -8 -18
-1 -31 3 -28 8 11 18 -159 135 -264 182 l-105 47 -3 46 c-2 25 3 56 10 69 16
31 144 147 161 147 6 0 93 -38 192 -83z m-766 -11 c75 -35 146 -67 158 -71 12
-3 32 -18 43 -32 20 -26 27 -63 12 -63 -12 0 -102 -88 -102 -100 0 -5 -8 -23
-18 -39 -11 -19 -18 -46 -16 -71 1 -22 1 -40 -1 -40 -5 0 -307 136 -357 161
l-48 23 0 74 0 73 73 75 c49 50 80 74 96 74 13 0 85 -29 160 -64z m429 -192
c124 -49 199 -92 215 -121 8 -15 22 -41 31 -58 9 -16 16 -37 15 -45 0 -8 -6
-1 -13 15 l-13 30 -6 -26 c-4 -15 -19 -35 -34 -45 -28 -19 -35 -33 -37 -67 0
-10 -6 -15 -14 -12 -7 2 -16 -3 -19 -13 -4 -9 -14 -22 -22 -29 -14 -11 -14
-12 4 -13 17 -1 16 -3 -5 -11 -14 -6 -38 -8 -55 -5 -35 7 -296 126 -308 141
-4 5 -6 44 -4 85 l4 74 67 63 c77 74 93 77 194 37z"/>
<path d="M2945 2970 c-3 -5 -1 -10 4 -10 6 0 11 5 11 10 0 6 -2 10 -4 10 -3 0
-8 -4 -11 -10z"/>
<path d="M2308 3935 c-21 -19 -34 -35 -30 -35 5 0 23 16 42 35 44 45 36 45
-12 0z"/>
<path d="M9301 3900 c14 -31 19 -36 19 -24 0 6 -7 19 -16 30 -14 18 -14 18 -3
-6z"/>
<path d="M3218 3878 c17 -21 88 -55 307 -143 282 -115 526 -215 575 -237 24
-11 76 -33 115 -48 38 -15 142 -58 230 -94 88 -37 248 -104 355 -148 292 -120
378 -157 450 -188 36 -16 117 -50 180 -76 63 -26 209 -87 324 -136 115 -49
214 -87 220 -85 5 2 -69 35 -165 75 -96 39 -187 77 -204 86 -16 8 -95 41 -175
74 -80 33 -199 83 -265 112 -66 28 -154 65 -195 81 -41 17 -88 37 -105 44 -16
8 -66 28 -110 45 -44 17 -89 35 -100 40 -33 16 -230 98 -395 165 -85 35 -249
103 -365 151 -115 47 -291 119 -390 159 -221 89 -233 94 -270 119 -21 14 -26
16 -17 4z"/>
<path d="M1777 3703 c-4 -3 -7 -11 -7 -17 0 -6 5 -5 12 2 6 6 9 14 7 17 -3 3
-9 2 -12 -2z"/>
<path d="M9471 3624 c0 -11 3 -14 6 -6 3 7 2 16 -1 19 -3 4 -6 -2 -5 -13z"/>
<path d="M9461 3574 c0 -11 3 -14 6 -6 3 7 2 16 -1 19 -3 4 -6 -2 -5 -13z"/>
<path d="M9420 3480 c-11 -22 -18 -40 -15 -40 2 0 14 18 25 40 11 22 18 40 15
40 -2 0 -14 -18 -25 -40z"/>
<path d="M9195 3398 l-40 -43 43 40 c39 36 47 45 39 45 -2 0 -21 -19 -42 -42z"/>
<path d="M9322 3350 c-164 -178 -418 -304 -917 -456 -500 -151 -700 -259 -801
-431 -25 -44 -74 -214 -74 -260 0 -44 8 -22 29 84 26 130 63 203 137 274 116
110 286 187 692 316 526 166 724 260 900 427 62 59 121 127 110 126 -2 0 -36
-37 -76 -80z"/>
<path d="M1047 2669 c7 -7 15 -10 18 -7 3 3 -2 9 -12 12 -14 6 -15 5 -6 -5z"/>
<path d="M6133 2390 c0 -47 2 -66 4 -42 2 23 2 61 0 85 -2 23 -4 4 -4 -43z"/>
<path d="M1917 2269 c7 -7 15 -10 18 -7 3 3 -2 9 -12 12 -14 6 -15 5 -6 -5z"/>
<path d="M7219 2141 c-62 -54 -125 -111 -139 -127 l-25 -29 30 26 c17 14 71
61 120 105 50 44 101 87 114 97 14 9 23 19 20 21 -3 3 -57 -39 -120 -93z"/>
<path d="M7495 2200 c3 -5 10 -10 16 -10 5 0 9 5 9 10 0 6 -7 10 -16 10 -8 0
-12 -4 -9 -10z"/>
<path d="M6121 2134 c0 -11 3 -14 6 -6 3 7 2 16 -1 19 -3 4 -6 -2 -5 -13z"/>
<path d="M6106 2085 c-9 -26 -7 -32 5 -12 6 10 9 21 6 23 -2 3 -7 -2 -11 -11z"/>
<path d="M6060 2012 c-29 -31 -227 -185 -615 -481 -33 -25 -96 -74 -140 -108
-248 -195 -474 -365 -505 -380 -19 -9 -62 -20 -95 -23 l-60 -7 58 -2 c40 -1
70 5 96 18 30 16 445 331 821 624 30 24 123 94 205 157 180 136 253 197 266
222 13 25 10 22 -31 -20z"/>
<path d="M7874 1770 c0 -107 2 -151 3 -97 2 53 2 141 0 195 -1 53 -3 9 -3 -98z"/>
<path d="M2967 1789 c7 -7 15 -10 18 -7 3 3 -2 9 -12 12 -14 6 -15 5 -6 -5z"/>
<path d="M3070 1740 c8 -5 20 -10 25 -10 6 0 3 5 -5 10 -8 5 -19 10 -25 10 -5
0 -3 -5 5 -10z"/>
<path d="M7539 1490 c-2 -146 -6 -272 -9 -280 -3 -8 -37 -40 -76 -70 -40 -30
-174 -136 -300 -234 -271 -213 -310 -236 -403 -237 -58 -1 -62 -2 -31 -10 48
-12 128 6 178 39 23 15 139 104 258 197 119 94 255 200 302 237 47 36 87 75
89 85 10 51 13 332 5 428 -8 103 -9 94 -13 -155z"/>
<path d="M3350 1610 c8 -5 20 -10 25 -10 6 0 3 5 -5 10 -8 5 -19 10 -25 10 -5
0 -3 -5 5 -10z"/>
<path d="M7862 1540 c0 -14 2 -19 5 -12 2 6 2 18 0 25 -3 6 -5 1 -5 -13z"/>
<path d="M7840 1479 c-8 -19 -65 -76 -147 -146 -73 -63 -133 -116 -133 -119 0
-6 173 138 228 190 42 40 78 93 69 102 -2 3 -10 -10 -17 -27z"/>
<path d="M3850 1380 c8 -5 20 -10 25 -10 6 0 3 5 -5 10 -8 5 -19 10 -25 10 -5
0 -3 -5 5 -10z"/>
<path d="M4007 1309 c7 -7 15 -10 18 -7 3 3 -2 9 -12 12 -14 6 -15 5 -6 -5z"/>
<path d="M4240 1200 c8 -5 20 -10 25 -10 6 0 3 5 -5 10 -8 5 -19 10 -25 10 -5
0 -3 -5 5 -10z"/>
<path d="M6658 673 c7 -3 16 -2 19 1 4 3 -2 6 -13 5 -11 0 -14 -3 -6 -6z"/>
</g>
</svg>
